# xmcd
#
# Track frame offsets:
#	150
#	11569
#	23918
#	39560
#	52165
#	65152
#	79995
#	92052
#	101306
#	111678
#	122305
#	134960
#
# Disc length: 2019 seconds
# Revision: 1
# Processed by: cddbd v1.5.2PL0 Copyright (c) Steve Scherf et al.
# Submitted via: dBpowerAMP V12.0
#
DISCID=ac07e10c
DTITLE=Doyle Lawson and Quicksilver - In Session
DYEAR=2015
DGENRE=Country
TTITLE0=Roll Big River
TTITLE1=Wilma Walker
TTITLE2=Calling All Her Children Home
TTITLE3=Weep and Cry
TTITLE4=I'd Just Be Fool Enough
TTITLE5=Big Eight Wheeler
TTITLE6=You, You, You
TTITLE7=Evening Prayer Blues
TTITLE8=Reasons Why
TTITLE9=I Told Them All About You
TTITLE10=Captain
TTITLE11=Americana
EXTD=
EXTT0=
EXTT1=
EXTT2=
EXTT3=
EXTT4=
EXTT5=
EXTT6=
EXTT7=
EXTT8=
EXTT9=
EXTT10=
EXTT11=
PLAYORDER=
